<svg width="151" height="152" viewBox="0 0 151 152" fill="none" xmlns="http://www.w3.org/2000/svg">
<path d="M108.33 89.1353C108.33 107.366 93.5579 122.11 75.3551 122.11C57.1523 122.11 42.3799 107.338 42.3799 89.1353C42.3799 70.9325 66.7793 41.0279 75.3551 32.0095C82.935 40.447 108.33 70.9325 108.33 89.1353Z" fill="white"/>
<path d="M75.3562 126.344C54.8297 126.344 38.1484 109.663 38.1484 89.1365C38.1484 65.6776 71.9536 29.4657 72.3132 29.1061L75.4669 25.7864L78.5099 29.1891C84.2086 35.5517 112.564 68.278 112.564 89.1365C112.564 109.995 95.8827 126.344 75.3562 126.344ZM75.3009 38.3458C64.263 50.8498 46.5859 74.9173 46.5859 89.1365C46.5859 104.988 59.5049 117.907 75.3562 117.907C91.2076 117.907 104.127 105.015 104.127 89.1365C104.127 75.6089 87.224 52.316 75.3009 38.3458Z" fill="#211815"/>
</svg>
