<?xml version="1.0" encoding="UTF-8"?>
<svg id="_레이어_1" data-name="레이어 1" xmlns="http://www.w3.org/2000/svg" version="1.1" viewBox="0 0 30 30">
  <defs>
    <style>
      .cls-1 {
        fill: #211815;
        stroke-width: 0px;
      }
    </style>
  </defs>
  <path class="cls-1" d="M15,23.1c-4.4,0-8.1-3.6-8.1-8.1s3.6-8.1,8.1-8.1,8.1,3.6,8.1,8.1-3.6,8.1-8.1,8.1ZM15,8.8c-3.4,0-6.2,2.8-6.2,6.2s2.8,6.2,6.2,6.2,6.2-2.8,6.2-6.2-2.8-6.2-6.2-6.2Z"/>
  <path class="cls-1" d="M15,28.8c-.5,0-.9-.4-.9-.9v-2.2c0-.5.4-.9.9-.9s.9.4.9.9v2.2c0,.5-.4.9-.9.9Z"/>
  <path class="cls-1" d="M24.1,25c-.2,0-.5,0-.7-.3l-1.5-1.5c-.4-.4-.4-1,0-1.3.4-.4,1-.4,1.3,0l1.5,1.5c.4.4.4,1,0,1.3-.2.2-.4.3-.7.3Z"/>
  <path class="cls-1" d="M27.9,15.9h-2.2c-.5,0-.9-.4-.9-.9s.4-.9.9-.9h2.2c.5,0,.9.4.9.9s-.4.9-.9.9Z"/>
  <path class="cls-1" d="M22.6,8.3c-.2,0-.5,0-.7-.3-.4-.4-.4-1,0-1.3l1.5-1.5c.4-.4,1-.4,1.3,0,.4.4.4,1,0,1.3l-1.5,1.5c-.2.2-.4.3-.7.3Z"/>
  <path class="cls-1" d="M15,5.2c-.5,0-.9-.4-.9-.9v-2.2c0-.5.4-.9.9-.9s.9.4.9.9v2.2c0,.5-.4.9-.9.9h0Z"/>
  <path class="cls-1" d="M7.4,8.3c-.2,0-.5,0-.7-.3l-1.5-1.5c-.4-.4-.4-1,0-1.3s1-.4,1.3,0l1.5,1.5c.4.4.4,1,0,1.3-.2.2-.4.3-.7.3Z"/>
  <path class="cls-1" d="M4.3,15.9h-2.2c-.5,0-.9-.4-.9-.9s.4-.9.9-.9h2.2c.5,0,.9.4.9.9s-.4.9-.9.9Z"/>
  <path class="cls-1" d="M5.9,25c-.2,0-.5,0-.7-.3-.4-.4-.4-1,0-1.3l1.5-1.5c.4-.4,1-.4,1.3,0,.4.4.4,1,0,1.3l-1.5,1.5c-.2.2-.4.3-.7.3Z"/>
</svg>