<svg width="30" height="31" viewBox="0 0 30 31" fill="none" xmlns="http://www.w3.org/2000/svg">
<path d="M14.997 22.4121C19.0751 22.4121 22.3811 19.1061 22.3811 15.028C22.3811 10.9498 19.0751 7.6438 14.997 7.6438C10.9188 7.6438 7.61279 10.9498 7.61279 15.028C7.61279 19.1061 10.9188 22.4121 14.997 22.4121Z" fill="#211815"/>
<path d="M14.9966 23.3724C10.3918 23.3724 6.65234 19.6266 6.65234 15.0218C6.65234 10.4169 10.3981 6.67749 14.9966 6.67749C19.5951 6.67749 23.3472 10.4233 23.3472 15.0218C23.3472 19.6203 19.6015 23.3724 14.9966 23.3724ZM14.9966 8.61038C11.4593 8.61038 8.57891 11.4908 8.57891 15.0281C8.57891 18.5654 11.4593 21.4458 14.9966 21.4458C18.5339 21.4458 21.4143 18.5654 21.4143 15.0281C21.4143 11.4908 18.5339 8.61038 14.9966 8.61038Z" fill="#211815"/>
</svg>
