<?xml version="1.0" encoding="UTF-8"?>
<svg id="_레이어_1" data-name="레이어 1" xmlns="http://www.w3.org/2000/svg" version="1.1" viewBox="0 0 30 31">
  <defs>
    <style>
      .cls-1 {
        fill: #272729;
      }

      .cls-1, .cls-2 {
        stroke-width: 0px;
      }

      .cls-2 {
        fill: #fff;
      }
    </style>
  </defs>
  <path class="cls-1" d="M29,17.6c0,0-.1,0-.2,0l-1.5-.4c-.4-.1-.7-.6-.5-1,.1-.4.5-.7,1-.5l1.5.4c.4.1.7.6.5,1,0,.3-.4.6-.8.6Z"/>
  <path class="cls-1" d="M23.8,5.9c0,0,0,.1,0,.2l-.6,1.5c-.2.4-.6.6-1,.5-.4-.2-.6-.6-.5-1l.6-1.5c.2-.4.6-.6,1-.5.3.1.5.5.5.8Z"/>
  <path class="cls-1" d="M15.1,18.3c.8-1.2,2,1.8,3.5,1.8,2.4,0,.8-4.6.8-2.1s3.8.3,3,1c.2.2.4.3.6.5.2.2.4.4.5.6,1-1.1,1.7-2.5,1.7-4.1,0-3.3-2.7-5.9-5.9-5.9s-4,1.2-5.1,2.9c.2,0,.5.2.7.3.2.1,0,4.9.2,5Z"/>
  <path class="cls-1" d="M26.8,11.3c-.3,0-.5-.1-.7-.4-.2-.4,0-.9.3-1.1l1.4-.8c.4-.2.9,0,1.1.3.2.4,0,.9-.3,1.1l-1.4.8c-.1,0-.3.1-.4.1h0Z"/>
  <path class="cls-1" d="M17.3,7.6c0,.3-.2.5-.5.6-.4.2-.9,0-1-.4l-.6-1.4c-.2-.4,0-.9.4-1,.4-.2.9,0,1,.4l.6,1.4c0,.1,0,.3,0,.4h0Z"/>
  <path class="cls-1" d="M15.9,12.5c.8-1.2,2.1-2,3.7-2,2.4,0,4.4,2,4.4,4.4s-.5,2.2-1.2,3c.2.2.4.3.6.5.2.2.4.4.5.6,1-1.1,1.7-2.5,1.7-4.1,0-3.3-2.7-5.9-5.9-5.9s-4,1.2-5.1,2.9c.2,0,.5.2.7.3.2.1.5.2.7.4h0Z"/>
  <path class="cls-2" d="M21.8,16.4c-.5-1.6-2-2.8-3.7-2.8s-1.4.2-1.9.5c-1.2-1.9-3.2-3.2-5.6-3.2-3.4,0-6.1,2.6-6.5,5.8-1.8.8-3,2.6-3,4.7s2.3,5.2,5.2,5.2h15.1c2.9,0,5.2-2.3,5.2-5.2s-2-4.9-4.6-5.1h0Z"/>
  <path class="cls-1" d="M21.3,27.5H6.1c-3.3,0-6-2.7-6-6s1.2-4.2,3.1-5.2c.6-3.5,3.6-6.1,7.2-6.1s4.5,1.1,5.9,3c.5-.2,1.1-.3,1.7-.3,1.9,0,3.6,1.1,4.3,2.8,2.8.5,4.9,2.9,4.9,5.8s-2.7,6-6,6h0ZM10.5,11.8c-2.9,0-5.4,2.2-5.7,5.1v.4c0,0-.5.2-.5.2-1.6.7-2.6,2.3-2.6,4,0,2.4,2,4.4,4.4,4.4h15.1c2.4,0,4.4-2,4.4-4.4s-1.7-4.1-3.9-4.3h-.5c0,0-.2-.5-.2-.5-.6-1.8-2.7-2.8-4.5-1.8l-.7.4-.4-.7c-1.1-1.8-2.9-2.8-4.9-2.8h0Z"/>
</svg>