<?xml version="1.0" encoding="UTF-8"?>
<svg id="_레이어_1" data-name="레이어 1" xmlns="http://www.w3.org/2000/svg" version="1.1" viewBox="0 0 30 31">
  <defs>
    <style>
      .cls-1 {
        fill: #a1a1a1;
      }

      .cls-1, .cls-2 {
        stroke-width: 0px;
      }

      .cls-2 {
        fill: #272729;
      }
    </style>
  </defs>
  <path class="cls-2" d="M22.5,22.5H7.3c-3.3,0-6-2.7-6-6s1.2-4.2,3.1-5.2c.6-3.5,3.6-6.1,7.2-6.1s4.5,1.1,5.9,3c.5-.2,1.1-.3,1.7-.3,1.9,0,3.6,1.1,4.3,2.8,2.8.5,4.9,2.9,4.9,5.8s-2.7,6-6,6h0ZM11.7,6.8c-2.9,0-5.4,2.2-5.7,5.1v.4c0,0-.5.2-.5.2-1.6.7-2.6,2.3-2.6,4,0,2.4,2,4.4,4.4,4.4h15.1c2.4,0,4.4-2,4.4-4.4s-1.7-4.1-3.9-4.3h-.5c0,0-.2-.5-.2-.5-.6-1.8-2.7-2.8-4.5-1.8l-.7.4-.4-.7c-1.1-1.8-2.9-2.8-4.9-2.8h0Z"/>
  <path class="cls-1" d="M23.6,16.7h-7.2c-2.3,0-4.2,1.9-4.2,4.2s1.9,4.2,4.2,4.2h7.2c2.3,0,4.2-1.9,4.2-4.2s-1.9-4.2-4.2-4.2Z"/>
  <path class="cls-2" d="M23.6,26h-7.2c-2.8,0-5-2.3-5-5s2.3-5,5-5h7.2c2.8,0,5,2.3,5,5s-2.3,5-5,5ZM16.4,17.5c-1.9,0-3.4,1.5-3.4,3.4s1.5,3.4,3.4,3.4h7.2c1.9,0,3.4-1.5,3.4-3.4s-1.5-3.4-3.4-3.4h-7.2Z"/>
</svg>