<?xml version="1.0" encoding="UTF-8"?>
<svg id="_레이어_1" data-name="레이어 1" xmlns="http://www.w3.org/2000/svg" version="1.1" viewBox="0 0 30 31">
  <defs>
    <style>
      .cls-1 {
        fill: #a1a1a1;
      }

      .cls-1, .cls-2 {
        stroke-width: 0px;
      }

      .cls-2 {
        fill: #272729;
      }
    </style>
  </defs>
  <path class="cls-1" d="M21.6,18.3c0,3.6-2.9,6.6-6.6,6.6s-6.6-2.9-6.6-6.6,4.9-9.6,6.6-11.4c1.5,1.7,6.6,7.7,6.6,11.4Z"/>
  <path class="cls-2" d="M15,25.7c-4.1,0-7.4-3.3-7.4-7.4s6.7-11.9,6.8-11.9l.6-.7.6.7c1.1,1.3,6.8,7.8,6.8,11.9s-3.3,7.4-7.4,7.4ZM15,8.1c-2.2,2.5-5.7,7.3-5.7,10.1s2.6,5.7,5.7,5.7,5.7-2.6,5.7-5.7-3.4-7.3-5.7-10.1Z"/>
</svg>