<?xml version="1.0" encoding="UTF-8"?>
<svg id="_레이어_1" data-name="레이어 1" xmlns="http://www.w3.org/2000/svg" version="1.1" viewBox="0 0 30 30">
  <defs>
    <style>
      .cls-1 {
        fill: #272729;
      }

      .cls-1, .cls-2 {
        stroke-width: 0px;
      }

      .cls-2 {
        fill: #fff;
      }
    </style>
  </defs>
  <path class="cls-1" d="M13.8,25c-4.1,0-7.4-3.3-7.4-7.4s6.7-11.9,6.8-11.9l.6-.7.6.7c1.1,1.3,6.8,7.8,6.8,11.9s-3.3,7.4-7.4,7.4ZM13.8,7.5c-2.2,2.5-5.7,7.3-5.7,10.1s2.6,5.7,5.7,5.7,5.7-2.6,5.7-5.7-3.4-7.3-5.7-10.1Z"/>
  <path class="cls-2" d="M22.7,12.8c0,2.1-1.7,3.8-3.8,3.8s-3.8-1.7-3.8-3.8,2.8-5.5,3.8-6.6c.9,1,3.8,4.5,3.8,6.6Z"/>
  <path class="cls-1" d="M18.9,17.4c-2.6,0-4.6-2.1-4.6-4.6s4-7.1,4-7.2l.6-.7.6.7c.7.7,4,4.6,4,7.1s-2.1,4.6-4.6,4.6ZM18.9,7.5c-1.2,1.4-2.9,3.9-2.9,5.3s1.3,3,3,3,3-1.3,3-3-1.4-3.5-3-5.3h0Z"/>
</svg>