<svg width="30" height="31" viewBox="0 0 30 31" fill="none" xmlns="http://www.w3.org/2000/svg">
<path d="M20.3882 18.2836C20.3882 21.9125 17.4476 24.8476 13.8242 24.8476C10.2008 24.8476 7.26025 21.907 7.26025 18.2836C7.26025 14.6603 12.1171 8.70753 13.8242 6.91235C15.333 8.59189 20.3882 14.6603 20.3882 18.2836Z" fill="#A1A1A1"/>
<path d="M13.8245 25.6901C9.7385 25.6901 6.41797 22.3696 6.41797 18.2836C6.41797 13.614 13.1471 6.40573 13.2187 6.33414L13.8465 5.67334L14.4522 6.35067C15.5866 7.6172 21.2309 14.1316 21.2309 18.2836C21.2309 22.4357 17.9104 25.6901 13.8245 25.6901ZM13.8079 8.16786C11.6108 10.6569 8.092 15.4477 8.092 18.2781C8.092 21.4334 10.6636 24.0051 13.8189 24.0051C16.9743 24.0051 19.5459 21.439 19.5459 18.2781C19.5459 15.5854 16.1813 10.9487 13.8079 8.16786Z" fill="#211815"/>
<path d="M22.7401 13.4873C22.7401 15.5854 21.0385 17.2814 18.946 17.2814C16.8534 17.2814 15.1519 15.5799 15.1519 13.4873C15.1519 11.3948 17.9603 7.95312 18.946 6.91235C19.816 7.88704 22.7401 11.3893 22.7401 13.4873Z" fill="white"/>
<path d="M18.9457 18.1183C16.3906 18.1183 14.3091 16.0368 14.3091 13.4817C14.3091 10.6403 18.2959 6.36707 18.34 6.32852L18.9677 5.66772L19.5735 6.34504C20.2453 7.09395 23.5823 10.9486 23.5823 13.4817C23.5823 16.0148 21.5008 18.1183 18.9457 18.1183ZM18.9347 8.18427C17.7177 9.62702 15.9886 12.072 15.9886 13.4872C15.9886 15.1172 17.3157 16.4443 18.9457 16.4443C20.5757 16.4443 21.9028 15.1172 21.9028 13.4872C21.9028 12.2647 20.46 10.0235 18.9402 8.18427H18.9347Z" fill="#211815"/>
</svg>
