<?xml version="1.0" encoding="UTF-8"?>
<svg id="_레이어_1" data-name="레이어 1" xmlns="http://www.w3.org/2000/svg" version="1.1" viewBox="0 0 30 31">
  <defs>
    <style>
      .cls-1 {
        fill: #272729;
      }

      .cls-1, .cls-2 {
        stroke-width: 0px;
      }

      .cls-2 {
        fill: #fff;
      }
    </style>
  </defs>
  <path class="cls-1" d="M22.6,21.6H7.4c-3.3,0-6-2.7-6-6s1.2-4.2,3.1-5.2c.6-3.5,3.6-6.1,7.2-6.1s4.5,1.1,5.9,3c.5-.2,1.1-.3,1.7-.3,1.9,0,3.6,1.1,4.3,2.8,2.8.5,4.9,2.9,4.9,5.8s-2.7,6-6,6h0ZM11.8,5.9c-2.9,0-5.4,2.2-5.7,5.1v.4c0,0-.5.2-.5.2-1.6.7-2.6,2.3-2.6,4,0,2.4,2,4.4,4.4,4.4h15.1c2.4,0,4.4-2,4.4-4.4s-1.7-4.1-3.9-4.3h-.5c0,0-.2-.5-.2-.5-.6-1.8-2.7-2.8-4.5-1.8l-.7.4-.4-.7c-1.1-1.8-2.9-2.8-4.9-2.8h0Z"/>
  <path class="cls-2" d="M11.4,10.2l4.6,1.6c.4.2.5.6.3.9l-2.6,4.2c-.1.2,0,.5.1.6l1.3.8c.5.3.6.9.2,1.3l-5.8,7c-.1.2-.4,0-.4-.2l1.8-7.2c0-.5-.7-.8-1-1l-1-.6c-.3-.2-.4-.5-.3-.7l2-6.2c.1-.4.5-.6.9-.4h0Z"/>
  <path class="cls-1" d="M9.1,27.4c0,0-.2,0-.2,0-.4-.2-.6-.6-.5-1l1.8-7.1c-.1-.1-.4-.3-.5-.4l-1.1-.7c-.5-.3-.8-.9-.6-1.5l2-6.3c0-.4.4-.7.7-.8.3-.2.7-.2,1.1,0l4.5,1.6c.4.2.7.5.8.9.1.4,0,.8-.2,1.1l-2.5,4,1.1.7c.4.2.7.6.7,1.1,0,.4,0,.9-.3,1.3l-5.8,7c-.2.2-.5.4-.8.3h0ZM11.2,10.8l-2,6.2,1.1.6c.5.3,1.4.8,1.2,1.7l-1.3,5.2,4.5-5.4c0,0,0-.1,0-.2,0,0,0,0,0-.1l-1.3-.8c-.3-.2-.4-.4-.5-.7,0-.3,0-.6.1-.8l2.6-4.2-4.5-1.5Z"/>
</svg>