<svg width="30" height="31" viewBox="0 0 30 31" fill="none" xmlns="http://www.w3.org/2000/svg">
<path d="M23.0859 10.0401C22.5848 8.44405 21.1128 7.28189 19.3515 7.28189C18.649 7.28189 17.993 7.48333 17.4249 7.80873C16.2679 5.90796 14.1966 4.62183 11.8103 4.62183C8.42716 4.62183 5.66897 7.17858 5.29708 10.4636C3.50994 11.2797 2.26514 13.072 2.26514 15.1639C2.26514 18.0202 4.57913 20.3394 7.44062 20.3394H22.5642C25.4205 20.3394 27.7397 18.0254 27.7397 15.1639C27.7397 12.4884 25.6994 10.3087 23.091 10.0452L23.0859 10.0401Z" fill="#A1A1A1"/>
<path d="M22.5592 21.1247H7.43568C4.15064 21.1247 1.4751 18.4491 1.4751 15.1641C1.4751 12.9896 2.67858 10.9855 4.57419 9.94728C5.18368 6.43498 8.22078 3.83691 11.8106 3.83691C14.1555 3.83691 16.3094 4.93709 17.704 6.80688C18.236 6.60027 18.7887 6.49696 19.3569 6.49696C21.2473 6.49696 22.9208 7.61781 23.6646 9.33264C26.4693 9.85432 28.525 12.2819 28.525 15.1641C28.525 18.4491 25.8495 21.1247 22.5644 21.1247H22.5592ZM11.8106 5.41228C8.87676 5.41228 6.41298 7.62298 6.07725 10.5568L6.0256 11.001L5.62271 11.1869C4.05767 11.8997 3.05047 13.4648 3.05047 15.1693C3.05047 17.5865 5.01839 19.5545 7.43568 19.5545H22.5592C24.9765 19.5545 26.9445 17.5865 26.9445 15.1693C26.9445 12.9276 25.2503 11.063 23.0034 10.8305L22.4869 10.7789L22.332 10.283C21.7587 8.45457 19.5841 7.49384 17.8125 8.49588L17.1462 8.87294L16.7484 8.21697C15.6844 6.46082 13.8353 5.41228 11.8054 5.41228H11.8106Z" fill="#211815"/>
<path d="M10.6743 10.4016L15.2248 11.9719C15.576 12.1371 15.6999 12.5762 15.4933 12.9016L12.8591 17.0802C12.73 17.2816 12.792 17.5502 12.9986 17.6793L14.2899 18.4696C14.7496 18.7485 14.8529 19.3735 14.5068 19.7867L8.67017 26.8217C8.53588 26.9818 8.27763 26.863 8.31378 26.6564L10.1061 19.4303C10.1887 18.9758 9.45011 18.6194 9.05756 18.387L8.07102 17.7981C7.81276 17.6432 7.69396 17.3436 7.77144 17.0544L9.76519 10.8149C9.87366 10.4275 10.3075 10.226 10.6691 10.4016H10.6743Z" fill="white"/>
<path d="M8.38619 27.5656C8.30355 27.5552 8.22607 27.5294 8.14342 27.4933C7.7767 27.328 7.57009 26.9303 7.6424 26.5377L9.40889 19.4201C9.28492 19.3065 9.00083 19.1412 8.87171 19.0689L7.72505 18.3871C7.20853 18.0824 6.95544 17.4574 7.11556 16.8737L9.11964 10.6032C9.21778 10.2468 9.4812 9.9369 9.84276 9.77161C10.1888 9.61666 10.5814 9.6115 10.9274 9.76129L15.4469 11.3263C15.8602 11.5174 16.1184 11.8222 16.2269 12.1889C16.3302 12.5556 16.2734 12.9482 16.0719 13.2736L13.5772 17.2353L14.6515 17.8912C15.0389 18.1288 15.3075 18.5214 15.3798 18.9707C15.4521 19.4201 15.3281 19.8747 15.0389 20.2259L9.20228 27.2608C9.00084 27.5036 8.69093 27.6172 8.39135 27.5707L8.38619 27.5656ZM10.4058 11.0319L8.42751 17.2663L9.55351 17.8861C10.07 18.1857 10.9378 18.6815 10.788 19.5544L9.49669 24.7712L13.9904 19.3581C14.0369 19.3013 14.042 19.2393 14.0317 19.198C14.0265 19.1619 14.0059 19.0999 13.9387 19.0586L12.6474 18.2683C12.3892 18.1082 12.2136 17.8602 12.1412 17.5658C12.0741 17.2714 12.1258 16.9718 12.2859 16.7188L14.9149 12.5401L10.4058 11.0319Z" fill="#211815"/>
</svg>
