<?xml version="1.0" encoding="UTF-8"?>
<svg id="_레이어_1" data-name="레이어 1" xmlns="http://www.w3.org/2000/svg" version="1.1" viewBox="0 0 30 31">
  <defs>
    <style>
      .cls-1 {
        fill: #272729;
        stroke-width: 0px;
      }
    </style>
  </defs>
  <path class="cls-1" d="M15,25c-1.7,0-3.1-1.4-3.1-3.1v-.6l-.5.3c-.7.4-1.6.5-2.4.3-.8-.2-1.5-.7-1.9-1.5-.4-.7-.5-1.6-.3-2.4.2-.8.7-1.5,1.5-1.9l.5-.3-.5-.3c-.7-.4-1.2-1.1-1.5-1.9-.2-.8-.1-1.7.3-2.4.4-.7,1.1-1.2,1.9-1.5.8-.2,1.7-.1,2.4.3l.5.3v-.6c0-1.7,1.4-3.1,3.1-3.1s3.1,1.4,3.1,3.1v.6l.5-.3c1.5-.9,3.4-.4,4.3,1.2.4.7.5,1.6.3,2.4-.2.8-.7,1.5-1.5,1.9l-.5.3.5.3c.7.4,1.2,1.1,1.5,1.9.2.8.1,1.7-.3,2.4-.9,1.5-2.8,2-4.3,1.2l-.5-.3v.6c0,1.7-1.4,3.1-3.1,3.1h0ZM13.5,18.3v3.5c0,.8.7,1.5,1.5,1.5s1.5-.7,1.5-1.5v-3.5l3.1,1.8c.7.4,1.6.2,2-.5.2-.3.2-.7.1-1.1,0-.4-.3-.7-.7-.9l-3.1-1.8,3.1-1.8c.3-.2.6-.5.7-.9,0-.4,0-.8-.1-1.1-.4-.7-1.3-.9-2-.5l-3.1,1.8v-3.5c0-.8-.7-1.5-1.5-1.5s-1.5.7-1.5,1.5v3.5l-3.1-1.8c-.3-.2-.7-.2-1.1-.1-.4,0-.7.3-.9.7-.2.3-.2.7-.1,1.1,0,.4.3.7.7.9l3.1,1.8-3.1,1.8c-.3.2-.6.5-.7.9-.1.4,0,.8.1,1.1.2.3.5.6.9.7.4,0,.8,0,1.1-.1l3.1-1.8Z"/>
</svg>