<svg width="30" height="31" viewBox="0 0 30 31" fill="none" xmlns="http://www.w3.org/2000/svg">
<path d="M16.7261 10.2966H9.03878C6.54799 10.2966 4.52881 12.3158 4.52881 14.8066C4.52881 17.2974 6.54799 19.3166 9.03878 19.3166H16.7261C19.2169 19.3166 21.2361 17.2974 21.2361 14.8066C21.2361 12.3158 19.2169 10.2966 16.7261 10.2966Z" fill="#A1A1A1"/>
<path d="M16.7262 20.1537H9.03888C6.09281 20.1537 3.69189 17.7528 3.69189 14.8067C3.69189 11.8606 6.09281 9.45972 9.03888 9.45972H16.7262C19.6778 9.45972 22.0732 11.8606 22.0732 14.8067C22.0732 17.7528 19.6723 20.1537 16.7262 20.1537ZM9.03888 11.1392C7.01793 11.1392 5.37143 12.7857 5.37143 14.8067C5.37143 16.8276 7.01793 18.4741 9.03888 18.4741H16.7262C18.7471 18.4741 20.3936 16.8276 20.3936 14.8067C20.3936 12.7857 18.7471 11.1392 16.7262 11.1392H9.03888Z" fill="#211815"/>
<path d="M24.5129 15.561H11.5392C10.9674 15.561 10.5039 16.0245 10.5039 16.5963V20.2197C10.5039 20.7914 10.9674 21.2549 11.5392 21.2549H24.5129C25.0846 21.2549 25.5481 20.7914 25.5481 20.2197V16.5963C25.5481 16.0245 25.0846 15.561 24.5129 15.561Z" fill="white"/>
<path d="M22.7067 22.015H13.3509C11.363 22.015 9.74951 20.4015 9.74951 18.4136C9.74951 16.4257 11.3685 14.8123 13.3509 14.8123H22.7067C24.6946 14.8123 26.3081 16.4257 26.3081 18.4136C26.3081 20.4015 24.6891 22.015 22.7067 22.015ZM13.3509 16.3211C12.2 16.3211 11.2583 17.2572 11.2583 18.4081C11.2583 19.559 12.1945 20.5006 13.3509 20.5006H22.7067C23.8576 20.5006 24.7993 19.5645 24.7993 18.4081C24.7993 17.2517 23.8631 16.3211 22.7067 16.3211H13.3509Z" fill="#211815"/>
</svg>
