<svg width="30" height="31" viewBox="0 0 30 31" fill="none" xmlns="http://www.w3.org/2000/svg">
<path d="M16.729 10.3284H9.04171C6.55092 10.3284 4.53174 12.3476 4.53174 14.8383C4.53174 17.3291 6.55092 19.3483 9.04171 19.3483H16.729C19.2198 19.3483 21.239 17.3291 21.239 14.8383C21.239 12.3476 19.2198 10.3284 16.729 10.3284Z" fill="#A1A1A1"/>
<path d="M16.7291 20.1854H9.04181C6.09574 20.1854 3.69482 17.7845 3.69482 14.8384C3.69482 11.8924 6.09574 9.49146 9.04181 9.49146H16.7291C19.6807 9.49146 22.0761 11.8924 22.0761 14.8384C22.0761 17.7845 19.6752 20.1854 16.7291 20.1854ZM9.04181 11.171C7.02086 11.171 5.37436 12.8175 5.37436 14.8384C5.37436 16.8594 7.02086 18.5059 9.04181 18.5059H16.7291C18.7501 18.5059 20.3966 16.8594 20.3966 14.8384C20.3966 12.8175 18.7501 11.171 16.7291 11.171H9.04181Z" fill="#211815"/>
<path d="M24.5153 15.5928H11.5416C10.9698 15.5928 10.5063 16.0563 10.5063 16.628V20.2514C10.5063 20.8232 10.9698 21.2867 11.5416 21.2867H24.5153C25.0871 21.2867 25.5506 20.8232 25.5506 20.2514V16.628C25.5506 16.0563 25.0871 15.5928 24.5153 15.5928Z" fill="white"/>
<path d="M22.7038 22.0467H13.3479C11.36 22.0467 9.74658 20.4333 9.74658 18.4453C9.74658 16.4574 11.3655 14.844 13.3479 14.844H22.7038C24.6917 14.844 26.3052 16.4574 26.3052 18.4453C26.3052 20.4333 24.6862 22.0467 22.7038 22.0467ZM13.3534 16.3528C12.2026 16.3528 11.2609 17.289 11.2609 18.4399C11.2609 19.5907 12.197 20.5324 13.3534 20.5324H22.7093C23.8602 20.5324 24.8018 19.5963 24.8018 18.4399C24.8018 17.2835 23.8657 16.3528 22.7093 16.3528H13.3534Z" fill="#211815"/>
</svg>
